<svg xmlns="http://www.w3.org/2000/svg" viewBox="0 0 640 420">
  <rect width="640" height="420" fill="#d8e7d0"/>
  <path fill="#b45a3c" d="M92 270c26-82 114-135 198-111 37 11 59 37 94 30 76-15 152 35 164 111 11 66-46 98-112 98H201c-76 0-132-55-109-128Z"/>
  <path fill="#e5a663" d="M148 244c25-49 88-70 135-42 41 25 81 22 123 6 51-19 103 19 105 73 2 52-40 78-94 78H196c-57 0-73-66-48-115Z"/>
  <path fill="#76452f" d="M180 318c57 22 185 28 286-5" opacity=".25"/>
  <circle cx="489" cy="118" r="48" fill="#7aa884"/>
  <circle cx="116" cy="104" r="34" fill="#e2c06b"/>
</svg>
